<svg xmlns="http://www.w3.org/2000/svg" xmlns:xlink="http://www.w3.org/1999/xlink" width="138" height="80" preserveAspectRatio="xMidYMid meet" version="1.0" viewBox="0 0 103.5 60" zoomAndPan="magnify"><defs><clipPath id="cf3683b502"><path d="M 0 0.144531 L 103.003906 0.144531 L 103.003906 59.855469 L 0 59.855469 Z M 0 0.144531" clip-rule="nonzero"/></clipPath><clipPath id="9f94b47a17"><path d="M 0 9 L 103.003906 9 L 103.003906 59.855469 L 0 59.855469 Z M 0 9" clip-rule="nonzero"/></clipPath><clipPath id="38515a51bf"><path d="M 0 0.21875 L 103.003906 0.21875 L 103.003906 50.855469 L 0 50.855469 Z M 0 0.21875" clip-rule="nonzero"/></clipPath><clipPath id="742b548db4"><rect width="104" height="51" x="0" y="0"/></clipPath><clipPath id="530758d79c"><path d="M 26.019531 13.664062 L 39.273438 13.664062 L 39.273438 28.152344 L 26.019531 28.152344 Z M 26.019531 13.664062" clip-rule="nonzero"/></clipPath><clipPath id="790754be64"><path d="M 0.0195312 0.664062 L 13.273438 0.664062 L 13.273438 15.152344 L 0.0195312 15.152344 Z M 0.0195312 0.664062" clip-rule="nonzero"/></clipPath><clipPath id="f65dfb1007"><rect width="14" height="16" x="0" y="0"/></clipPath><clipPath id="eb2447fb3c"><path d="M 20 4 L 46 4 L 46 29 L 20 29 Z M 20 4" clip-rule="nonzero"/></clipPath><clipPath id="2c19b78f02"><path d="M 29.898438 0.699219 L 49.546875 15.027344 L 35.546875 34.226562 L 15.898438 19.898438 Z M 29.898438 0.699219" clip-rule="nonzero"/></clipPath><clipPath id="a9212e64f7"><path d="M 45.386719 14.933594 L 36.253906 17.996094 L 41.691406 25.683594 L 38.558594 28.082031 L 33.042969 20.339844 L 27.300781 28.214844 L 24.167969 25.929688 L 29.910156 18.050781 L 20.851562 15.167969 L 22.097656 11.398438 L 31.160156 14.28125 L 31.28125 4.648438 L 35.226562 4.585938 L 35.105469 14.21875 L 44.238281 11.15625 Z M 45.386719 14.933594" clip-rule="nonzero"/></clipPath><clipPath id="4ae6e07abb"><path d="M 0.78125 0.445312 L 25.621094 0.445312 L 25.621094 24.328125 L 0.78125 24.328125 Z M 0.78125 0.445312" clip-rule="nonzero"/></clipPath><clipPath id="93ebf49a32"><path d="M 9.898438 -3.300781 L 29.546875 11.027344 L 15.546875 30.226562 L -4.101562 15.898438 Z M 9.898438 -3.300781" clip-rule="nonzero"/></clipPath><clipPath id="a3b7ecbd1b"><path d="M 25.386719 10.933594 L 16.253906 13.996094 L 21.691406 21.683594 L 18.558594 24.082031 L 13.042969 16.339844 L 7.300781 24.214844 L 4.167969 21.929688 L 9.910156 14.050781 L 0.851562 11.167969 L 2.097656 7.398438 L 11.160156 10.28125 L 11.28125 0.648438 L 15.226562 0.585938 L 15.105469 10.21875 L 24.238281 7.15625 Z M 25.386719 10.933594" clip-rule="nonzero"/></clipPath><clipPath id="6dd80b356c"><rect width="26" height="25" x="0" y="0"/></clipPath><clipPath id="7346a3675f"><path d="M 20 4 L 46 4 L 46 29 L 20 29 Z M 20 4" clip-rule="nonzero"/></clipPath><clipPath id="380a1e2997"><path d="M 29.898438 0.699219 L 49.488281 14.984375 L 35.492188 34.179688 L 15.902344 19.894531 Z M 29.898438 0.699219" clip-rule="nonzero"/></clipPath><clipPath id="f451d055ea"><path d="M 29.898438 0.699219 L 49.488281 14.984375 L 35.488281 34.183594 L 15.902344 19.898438 Z M 29.898438 0.699219" clip-rule="nonzero"/></clipPath><clipPath id="002983eab2"><path d="M 45.386719 14.933594 L 36.25 17.996094 L 41.6875 25.679688 L 38.558594 28.078125 L 33.042969 20.335938 L 27.300781 28.210938 L 24.167969 25.925781 L 29.910156 18.050781 L 20.851562 15.164062 L 22.101562 11.394531 L 31.160156 14.28125 L 31.28125 4.648438 L 35.226562 4.585938 L 35.105469 14.21875 L 44.238281 11.15625 Z M 45.386719 14.933594" clip-rule="nonzero"/></clipPath><clipPath id="8e4449971e"><rect width="104" height="60" x="0" y="0"/></clipPath></defs><g clip-path="url(#cf3683b502)"><path fill="#fff" fill-opacity="1" fill-rule="nonzero" d="M 0 0.144531 L 103.003906 0.144531 L 103.003906 59.855469 L 0 59.855469 Z M 0 0.144531"/><path fill="#fff" fill-opacity="1" fill-rule="nonzero" d="M 0 0.144531 L 103.003906 0.144531 L 103.003906 59.855469 L 0 59.855469 Z M 0 0.144531"/><g><g clip-path="url(#8e4449971e)" transform="matrix(1, 0, 0, 1, 0, 0.000000000000007716)"><g clip-path="url(#9f94b47a17)"><g><g clip-path="url(#742b548db4)" transform="matrix(1, 0, 0, 1, 0, 9)"><g clip-path="url(#38515a51bf)"><path fill="#ffed00" fill-opacity="1" fill-rule="nonzero" d="M 0 0.570312 L 103.003906 0.570312 L 103.003906 50.921875 L 0 50.921875 L 0 0.570312"/></g><g fill="#000" fill-opacity="1"><g><g><path d="M 14.859375 -26.125 L 13.890625 -25.859375 C 13.191406 -25.640625 12.84375 -25.21875 12.84375 -24.59375 L 12.84375 -4 C 12.84375 -3.457031 12.988281 -3.070312 13.28125 -2.84375 C 13.582031 -2.625 14.007812 -2.515625 14.5625 -2.515625 L 17.03125 -2.515625 C 17.78125 -2.515625 18.425781 -2.613281 18.96875 -2.8125 C 19.519531 -3.019531 20.023438 -3.390625 20.484375 -3.921875 C 20.941406 -4.460938 21.398438 -5.242188 21.859375 -6.265625 L 23.140625 -9.09375 C 23.335938 -9.507812 23.585938 -9.785156 23.890625 -9.921875 C 24.203125 -10.066406 24.546875 -10.082031 24.921875 -9.96875 C 25.316406 -9.863281 25.59375 -9.671875 25.75 -9.390625 C 25.914062 -9.117188 25.941406 -8.753906 25.828125 -8.296875 L 23.875 -1.125 C 23.695312 -0.476562 23.46875 -0.00390625 23.1875 0.296875 C 22.90625 0.597656 22.488281 0.75 21.9375 0.75 C 21.613281 0.75 21.296875 0.6875 20.984375 0.5625 C 20.671875 0.4375 20.316406 0.3125 19.921875 0.1875 C 19.523438 0.0625 19.046875 0 18.484375 0 L 3.5 0 C 2.976562 0 2.59375 -0.101562 2.34375 -0.3125 C 2.101562 -0.53125 1.984375 -0.820312 1.984375 -1.1875 C 1.984375 -1.5 2.054688 -1.757812 2.203125 -1.96875 C 2.359375 -2.175781 2.601562 -2.34375 2.9375 -2.46875 L 3.90625 -2.734375 C 4.59375 -2.960938 4.9375 -3.382812 4.9375 -4 L 4.9375 -24.59375 C 4.9375 -25.21875 4.59375 -25.640625 3.90625 -25.859375 L 2.9375 -26.125 C 2.601562 -26.25 2.359375 -26.421875 2.203125 -26.640625 C 2.054688 -26.859375 1.984375 -27.117188 1.984375 -27.421875 C 1.984375 -27.785156 2.101562 -28.070312 2.34375 -28.28125 C 2.59375 -28.488281 2.976562 -28.59375 3.5 -28.59375 L 14.328125 -28.59375 C 14.835938 -28.59375 15.210938 -28.488281 15.453125 -28.28125 C 15.691406 -28.070312 15.8125 -27.785156 15.8125 -27.421875 C 15.8125 -27.117188 15.738281 -26.859375 15.59375 -26.640625 C 15.457031 -26.421875 15.210938 -26.25 14.859375 -26.125 Z M 14.859375 -26.125" transform="translate(-0.000000000000036998, 40.339487)"/></g></g></g><g fill="#000" fill-opacity="1"><g><g><path d="M 6.640625 -22.5 C 5.316406 -22.5 4.269531 -22.8125 3.5 -23.4375 C 2.726562 -24.070312 2.34375 -24.925781 2.34375 -26 C 2.34375 -27.0625 2.726562 -27.90625 3.5 -28.53125 C 4.269531 -29.164062 5.316406 -29.484375 6.640625 -29.484375 C 7.960938 -29.484375 9.007812 -29.164062 9.78125 -28.53125 C 10.5625 -27.90625 10.953125 -27.0625 10.953125 -26 C 10.953125 -24.925781 10.5625 -24.070312 9.78125 -23.4375 C 9.007812 -22.8125 7.960938 -22.5 6.640625 -22.5 Z M 10.703125 -18.453125 L 10.703125 -3.828125 C 10.703125 -3.316406 10.753906 -2.957031 10.859375 -2.75 C 10.960938 -2.539062 11.128906 -2.394531 11.359375 -2.3125 L 11.953125 -2.109375 C 12.503906 -1.867188 12.78125 -1.515625 12.78125 -1.046875 C 12.78125 -0.347656 12.332031 0 11.4375 0 L 2.765625 0 C 2.296875 0 1.953125 -0.0859375 1.734375 -0.265625 C 1.515625 -0.453125 1.40625 -0.710938 1.40625 -1.046875 C 1.40625 -1.515625 1.679688 -1.867188 2.234375 -2.109375 L 2.859375 -2.3125 C 3.085938 -2.40625 3.25 -2.550781 3.34375 -2.75 C 3.445312 -2.957031 3.5 -3.304688 3.5 -3.796875 L 3.5 -14.421875 C 3.5 -14.816406 3.441406 -15.097656 3.328125 -15.265625 C 3.222656 -15.441406 3.046875 -15.554688 2.796875 -15.609375 L 2.046875 -15.703125 C 1.535156 -15.859375 1.28125 -16.164062 1.28125 -16.625 C 1.28125 -16.914062 1.359375 -17.140625 1.515625 -17.296875 C 1.671875 -17.460938 1.960938 -17.628906 2.390625 -17.796875 L 6.53125 -19.375 C 7.175781 -19.613281 7.6875 -19.785156 8.0625 -19.890625 C 8.4375 -19.992188 8.757812 -20.046875 9.03125 -20.046875 C 9.59375 -20.046875 10.007812 -19.894531 10.28125 -19.59375 C 10.5625 -19.300781 10.703125 -18.921875 10.703125 -18.453125 Z M 10.703125 -18.453125" transform="translate(26.562726, 40.339487)"/></g></g></g><g fill="#000" fill-opacity="1"><g><g><path d="M 10.703125 -18.453125 L 10.703125 -16.421875 C 12.242188 -17.773438 13.601562 -18.722656 14.78125 -19.265625 C 15.957031 -19.804688 17.0625 -20.078125 18.09375 -20.078125 C 19.46875 -20.078125 20.640625 -19.722656 21.609375 -19.015625 C 22.585938 -18.304688 23.269531 -17.34375 23.65625 -16.125 C 24.75 -17.101562 25.742188 -17.878906 26.640625 -18.453125 C 27.535156 -19.035156 28.367188 -19.453125 29.140625 -19.703125 C 29.921875 -19.953125 30.675781 -20.078125 31.40625 -20.078125 C 32.601562 -20.078125 33.640625 -19.8125 34.515625 -19.28125 C 35.390625 -18.75 36.070312 -18.003906 36.5625 -17.046875 C 37.050781 -16.097656 37.296875 -14.984375 37.296875 -13.703125 L 37.296875 -3.84375 C 37.296875 -3.332031 37.347656 -2.96875 37.453125 -2.75 C 37.566406 -2.539062 37.734375 -2.394531 37.953125 -2.3125 L 38.546875 -2.109375 C 38.847656 -1.984375 39.0625 -1.832031 39.1875 -1.65625 C 39.3125 -1.488281 39.375 -1.285156 39.375 -1.046875 C 39.375 -0.710938 39.265625 -0.453125 39.046875 -0.265625 C 38.835938 -0.0859375 38.492188 0 38.015625 0 L 29.5625 0 C 29.082031 0 28.734375 -0.09375 28.515625 -0.28125 C 28.296875 -0.476562 28.1875 -0.753906 28.1875 -1.109375 C 28.1875 -1.535156 28.40625 -1.859375 28.84375 -2.078125 L 29.4375 -2.3125 C 29.664062 -2.414062 29.832031 -2.566406 29.9375 -2.765625 C 30.039062 -2.972656 30.09375 -3.332031 30.09375 -3.84375 L 30.09375 -12.671875 C 30.09375 -13.703125 29.859375 -14.472656 29.390625 -14.984375 C 28.921875 -15.503906 28.265625 -15.765625 27.421875 -15.765625 C 26.890625 -15.765625 26.335938 -15.644531 25.765625 -15.40625 C 25.203125 -15.175781 24.644531 -14.820312 24.09375 -14.34375 L 23.984375 -14.265625 C 23.992188 -14.160156 24 -14.0625 24 -13.96875 C 24 -13.882812 24 -13.796875 24 -13.703125 L 24 -3.84375 C 24 -3.332031 24.050781 -2.972656 24.15625 -2.765625 C 24.269531 -2.566406 24.441406 -2.414062 24.671875 -2.3125 L 25.234375 -2.078125 C 25.671875 -1.859375 25.890625 -1.535156 25.890625 -1.109375 C 25.890625 -0.753906 25.78125 -0.476562 25.5625 -0.28125 C 25.34375 -0.09375 24.992188 0 24.515625 0 L 16.265625 0 C 15.785156 0 15.4375 -0.09375 15.21875 -0.28125 C 15 -0.476562 14.890625 -0.753906 14.890625 -1.109375 C 14.890625 -1.535156 15.109375 -1.859375 15.546875 -2.078125 L 16.140625 -2.3125 C 16.367188 -2.414062 16.535156 -2.566406 16.640625 -2.765625 C 16.742188 -2.972656 16.796875 -3.332031 16.796875 -3.84375 L 16.796875 -12.671875 C 16.796875 -13.703125 16.5625 -14.472656 16.09375 -14.984375 C 15.632812 -15.503906 14.972656 -15.765625 14.109375 -15.765625 C 13.578125 -15.765625 13.03125 -15.644531 12.46875 -15.40625 C 11.90625 -15.175781 11.34375 -14.820312 10.78125 -14.34375 L 10.703125 -14.28125 L 10.703125 -3.828125 C 10.703125 -3.316406 10.753906 -2.960938 10.859375 -2.765625 C 10.960938 -2.566406 11.128906 -2.414062 11.359375 -2.3125 L 11.9375 -2.078125 C 12.363281 -1.859375 12.578125 -1.535156 12.578125 -1.109375 C 12.578125 -0.753906 12.46875 -0.476562 12.25 -0.28125 C 12.039062 -0.09375 11.695312 0 11.21875 0 L 2.765625 0 C 2.296875 0 1.953125 -0.0859375 1.734375 -0.265625 C 1.515625 -0.453125 1.40625 -0.710938 1.40625 -1.046875 C 1.40625 -1.515625 1.679688 -1.867188 2.234375 -2.109375 L 2.859375 -2.3125 C 3.085938 -2.40625 3.25 -2.550781 3.34375 -2.75 C 3.445312 -2.957031 3.5 -3.304688 3.5 -3.796875 L 3.5 -14.421875 C 3.5 -14.816406 3.441406 -15.097656 3.328125 -15.265625 C 3.222656 -15.441406 3.046875 -15.554688 2.796875 -15.609375 L 2.046875 -15.703125 C 1.535156 -15.859375 1.28125 -16.164062 1.28125 -16.625 C 1.28125 -16.914062 1.359375 -17.140625 1.515625 -17.296875 C 1.671875 -17.460938 1.960938 -17.628906 2.390625 -17.796875 L 6.53125 -19.375 C 7.144531 -19.601562 7.640625 -19.769531 8.015625 -19.875 C 8.398438 -19.988281 8.765625 -20.046875 9.109375 -20.046875 C 9.628906 -20.046875 10.023438 -19.894531 10.296875 -19.59375 C 10.566406 -19.300781 10.703125 -18.921875 10.703125 -18.453125 Z M 10.703125 -18.453125" transform="translate(40.273178, 40.339487)"/></g></g></g><g fill="#000" fill-opacity="1"><g><g><path d="M 21.171875 -12.28125 C 21.171875 -11.4375 20.929688 -10.78125 20.453125 -10.3125 C 19.984375 -9.851562 19.304688 -9.625 18.421875 -9.625 L 7.859375 -9.625 C 8.191406 -7.851562 8.910156 -6.535156 10.015625 -5.671875 C 11.128906 -4.804688 12.515625 -4.375 14.171875 -4.375 C 15.222656 -4.375 16.160156 -4.539062 16.984375 -4.875 C 17.804688 -5.21875 18.519531 -5.765625 19.125 -6.515625 C 19.445312 -6.828125 19.695312 -7.035156 19.875 -7.140625 C 20.050781 -7.253906 20.226562 -7.3125 20.40625 -7.3125 C 20.65625 -7.3125 20.832031 -7.195312 20.9375 -6.96875 C 21.050781 -6.738281 21.109375 -6.453125 21.109375 -6.109375 C 21.085938 -5.210938 20.84375 -4.363281 20.375 -3.5625 C 19.914062 -2.769531 19.273438 -2.066406 18.453125 -1.453125 C 17.628906 -0.835938 16.65625 -0.351562 15.53125 0 C 14.40625 0.351562 13.164062 0.53125 11.8125 0.53125 C 10.28125 0.53125 8.867188 0.300781 7.578125 -0.15625 C 6.296875 -0.625 5.175781 -1.289062 4.21875 -2.15625 C 3.269531 -3.019531 2.53125 -4.050781 2 -5.25 C 1.476562 -6.457031 1.21875 -7.800781 1.21875 -9.28125 C 1.21875 -11.425781 1.644531 -13.304688 2.5 -14.921875 C 3.363281 -16.546875 4.601562 -17.8125 6.21875 -18.71875 C 7.84375 -19.625 9.796875 -20.078125 12.078125 -20.078125 C 14.035156 -20.078125 15.691406 -19.742188 17.046875 -19.078125 C 18.398438 -18.410156 19.425781 -17.488281 20.125 -16.3125 C 20.820312 -15.144531 21.171875 -13.800781 21.171875 -12.28125 Z M 7.65625 -11.90625 C 7.65625 -11.84375 7.65625 -11.769531 7.65625 -11.6875 C 7.65625 -11.613281 7.65625 -11.546875 7.65625 -11.484375 L 12.90625 -11.484375 C 13.28125 -11.484375 13.554688 -11.5625 13.734375 -11.71875 C 13.910156 -11.875 14 -12.128906 14 -12.484375 C 14 -14.222656 13.734375 -15.507812 13.203125 -16.34375 C 12.679688 -17.175781 11.976562 -17.59375 11.09375 -17.59375 C 10.101562 -17.59375 9.28125 -17.109375 8.625 -16.140625 C 7.976562 -15.171875 7.65625 -13.757812 7.65625 -11.90625 Z M 7.65625 -11.90625" transform="translate(80.607655, 40.339487)"/></g></g></g></g></g></g><g clip-path="url(#530758d79c)"><g><g clip-path="url(#f65dfb1007)" transform="matrix(1, 0, 0, 1, 26, 13)"><g clip-path="url(#790754be64)"><path fill="#ffed00" fill-opacity="1" fill-rule="nonzero" d="M 0.0195312 0.664062 L 13.273438 0.664062 L 13.273438 15.160156 L 0.0195312 15.160156 Z M 0.0195312 0.664062"/></g></g></g></g><g clip-path="url(#eb2447fb3c)"><g clip-path="url(#2c19b78f02)"><g clip-path="url(#a9212e64f7)"><g><g clip-path="url(#6dd80b356c)" transform="matrix(1, 0, 0, 1, 20, 4)"><g clip-path="url(#4ae6e07abb)"><g clip-path="url(#93ebf49a32)"><g clip-path="url(#a3b7ecbd1b)"><path fill="#ffde59" fill-opacity="1" fill-rule="nonzero" d="M 9.898438 -3.300781 L 29.472656 10.972656 L 15.472656 30.171875 L -4.101562 15.898438 Z M 9.898438 -3.300781"/></g></g></g></g></g></g></g></g><g clip-path="url(#7346a3675f)"><g clip-path="url(#380a1e2997)"><g clip-path="url(#f451d055ea)"><g clip-path="url(#002983eab2)"><path fill="none" stroke="#000" stroke-linecap="butt" stroke-linejoin="miter" stroke-miterlimit="4" stroke-opacity="1" stroke-width="45.87" d="M 128.443796 14.599583 L 94.163359 62.890178 L 148.985657 81.355246 L 142.133244 104.59452 L 86.710843 86.121383 L 86.712074 146.017706 L 62.881324 146.014155 L 62.880093 86.117831 L 7.445923 104.583953 L 0.00376657 81.339719 L 55.437936 62.873597 L 21.159555 14.602193 L 40.52419 0.00616237 L 74.80257 48.277567 L 109.06361 0.00111672 Z M 128.443796 14.599583" transform="matrix(0.131475, 0.0958715, -0.0958715, 0.131475, 29.899227, 0.700013)"/></g></g></g></g></g></g></g></svg>