<svg xmlns="http://www.w3.org/2000/svg" xmlns:xlink="http://www.w3.org/1999/xlink" width="1828" height="1061" preserveAspectRatio="xMidYMid meet" version="1.0" viewBox="0 0 1371 795.75" zoomAndPan="magnify"><defs><clipPath id="a3fda77df7"><path d="M 0.933594 114 L 1096.1875 114 L 1096.1875 652.070312 L 0.933594 652.070312 Z M 0.933594 114" clip-rule="nonzero"/></clipPath><clipPath id="7060c67bec"><path d="M 0.933594 2 L 1096 2 L 1096 538 L 0.933594 538 Z M 0.933594 2" clip-rule="nonzero"/></clipPath><clipPath id="b9df86c029"><rect width="1097" height="539" x="0" y="0"/></clipPath><clipPath id="30815ff5d6"><path d="M 277.417969 159.730469 L 418.238281 159.730469 L 418.238281 313.667969 L 277.417969 313.667969 Z M 277.417969 159.730469" clip-rule="nonzero"/></clipPath><clipPath id="d3c9447e16"><path d="M 0.417969 0.730469 L 141.238281 0.730469 L 141.238281 154.667969 L 0.417969 154.667969 Z M 0.417969 0.730469" clip-rule="nonzero"/></clipPath><clipPath id="76543f2085"><rect width="142" height="155" x="0" y="0"/></clipPath><clipPath id="3a6d6a45d9"><path d="M 222 63 L 484 63 L 484 315 L 222 315 Z M 222 63" clip-rule="nonzero"/></clipPath><clipPath id="cc46bd8ab8"><path d="M 318.625 21.992188 L 527.394531 174.226562 L 378.648438 378.210938 L 169.878906 225.980469 Z M 318.625 21.992188" clip-rule="nonzero"/></clipPath><clipPath id="2bf4cf0d8b"><path d="M 483.179688 173.226562 L 386.125 205.757812 L 443.902344 287.425781 L 410.652344 312.914062 L 352.039062 230.640625 L 291.023438 314.316406 L 257.71875 290.03125 L 318.734375 206.355469 L 222.480469 175.703125 L 235.753906 135.640625 L 332.007812 166.292969 L 333.308594 63.941406 L 375.242188 63.277344 L 373.941406 165.628906 L 470.992188 133.097656 Z M 483.179688 173.226562" clip-rule="nonzero"/></clipPath><clipPath id="a6fdbdacd7"><path d="M 0.382812 0.0546875 L 261.179688 0.0546875 L 261.179688 251.496094 L 0.382812 251.496094 Z M 0.382812 0.0546875" clip-rule="nonzero"/></clipPath><clipPath id="7b8fbcd38e"><path d="M 96.625 -41.007812 L 305.394531 111.226562 L 156.648438 315.210938 L -52.121094 162.980469 Z M 96.625 -41.007812" clip-rule="nonzero"/></clipPath><clipPath id="fbd139f66d"><path d="M 261.179688 110.226562 L 164.125 142.757812 L 221.902344 224.425781 L 188.652344 249.914062 L 130.039062 167.640625 L 69.023438 251.316406 L 35.71875 227.03125 L 96.734375 143.355469 L 0.480469 112.703125 L 13.753906 72.640625 L 110.007812 103.292969 L 111.308594 0.941406 L 153.242188 0.277344 L 151.941406 102.628906 L 248.992188 70.097656 Z M 261.179688 110.226562" clip-rule="nonzero"/></clipPath><clipPath id="453f4a5800"><rect width="262" height="252" x="0" y="0"/></clipPath><clipPath id="ef8a1c6741"><path d="M 222 63 L 484 63 L 484 315 L 222 315 Z M 222 63" clip-rule="nonzero"/></clipPath><clipPath id="c2e762d7af"><path d="M 318.625 21.992188 L 526.761719 173.761719 L 378.046875 377.707031 L 169.910156 225.933594 Z M 318.625 21.992188" clip-rule="nonzero"/></clipPath><clipPath id="07e27112a7"><path d="M 318.628906 21.992188 L 526.757812 173.761719 L 378.027344 377.726562 L 169.898438 225.960938 Z M 318.628906 21.992188" clip-rule="nonzero"/></clipPath><clipPath id="6a8ac0fa7b"><path d="M 483.164062 173.214844 L 386.121094 205.742188 L 443.894531 287.398438 L 410.644531 312.886719 L 352.039062 230.621094 L 291.027344 314.289062 L 257.726562 290.003906 L 318.738281 206.335938 L 222.496094 175.6875 L 235.765625 135.632812 L 332.007812 166.28125 L 333.3125 63.941406 L 375.242188 63.273438 L 373.9375 165.613281 L 470.980469 133.085938 Z M 483.164062 173.214844" clip-rule="nonzero"/></clipPath><clipPath id="850b85b7b8"><rect width="1097" height="653" x="0" y="0"/></clipPath></defs><g><g clip-path="url(#850b85b7b8)" transform="matrix(1, 0, 0, 1, 137, 13)"><g clip-path="url(#a3fda77df7)"><g><g clip-path="url(#b9df86c029)" transform="matrix(1, 0, 0, 1, 0, 114)"><g clip-path="url(#7060c67bec)"><path fill="#ffed00" fill-opacity="1" fill-rule="nonzero" d="M 0.960938 2.214844 L 1095.324219 2.214844 L 1095.324219 537.195312 L 0.960938 537.195312 L 0.960938 2.214844"/></g><g fill="#000" fill-opacity="1"><g><g><path d="M 157.828125 -277.65625 L 147.625 -274.84375 C 140.238281 -272.519531 136.546875 -268.03125 136.546875 -261.375 L 136.546875 -42.546875 C 136.546875 -36.753906 138.101562 -32.664062 141.21875 -30.28125 C 144.332031 -27.894531 148.851562 -26.703125 154.78125 -26.703125 L 181.0625 -26.703125 C 189.019531 -26.703125 195.890625 -27.785156 201.671875 -29.953125 C 207.460938 -32.128906 212.78125 -36.070312 217.625 -41.78125 C 222.476562 -47.5 227.367188 -55.785156 232.296875 -66.640625 L 245.96875 -96.609375 C 247.988281 -101.097656 250.628906 -104.0625 253.890625 -105.5 C 257.148438 -106.945312 260.804688 -107.09375 264.859375 -105.9375 C 269.054688 -104.78125 272.019531 -102.753906 273.75 -99.859375 C 275.488281 -96.960938 275.707031 -93.054688 274.40625 -88.140625 L 253.78125 -11.9375 C 251.894531 -5.132812 249.429688 -0.109375 246.390625 3.140625 C 243.359375 6.398438 238.945312 8.03125 233.15625 8.03125 C 229.6875 8.03125 226.285156 7.34375 222.953125 5.96875 C 219.628906 4.59375 215.867188 3.253906 211.671875 1.953125 C 207.472656 0.648438 202.40625 0 196.46875 0 L 37.125 0 C 31.625 0 27.570312 -1.117188 24.96875 -3.359375 C 22.363281 -5.609375 21.0625 -8.6875 21.0625 -12.59375 C 21.0625 -15.914062 21.851562 -18.695312 23.4375 -20.9375 C 25.03125 -23.1875 27.640625 -24.960938 31.265625 -26.265625 L 41.46875 -29.09375 C 48.84375 -31.550781 52.53125 -36.035156 52.53125 -42.546875 L 52.53125 -261.375 C 52.53125 -268.03125 48.84375 -272.519531 41.46875 -274.84375 L 31.265625 -277.65625 C 27.640625 -278.957031 25.03125 -280.765625 23.4375 -283.078125 C 21.851562 -285.398438 21.0625 -288.15625 21.0625 -291.34375 C 21.0625 -295.25 22.363281 -298.320312 24.96875 -300.5625 C 27.570312 -302.8125 31.625 -303.9375 37.125 -303.9375 L 152.1875 -303.9375 C 157.6875 -303.9375 161.703125 -302.8125 164.234375 -300.5625 C 166.765625 -298.320312 168.03125 -295.25 168.03125 -291.34375 C 168.03125 -288.15625 167.269531 -285.398438 165.75 -283.078125 C 164.226562 -280.765625 161.585938 -278.957031 157.828125 -277.65625 Z M 157.828125 -277.65625" transform="translate(0.960331, 424.771024)"/></g></g></g><g fill="#000" fill-opacity="1"><g><g><path d="M 70.5625 -239.015625 C 56.519531 -239.015625 45.410156 -242.378906 37.234375 -249.109375 C 29.054688 -255.835938 24.96875 -264.921875 24.96875 -276.359375 C 24.96875 -287.648438 29.054688 -296.625 37.234375 -303.28125 C 45.410156 -309.9375 56.519531 -313.265625 70.5625 -313.265625 C 84.59375 -313.265625 95.734375 -309.9375 103.984375 -303.28125 C 112.234375 -296.625 116.359375 -287.648438 116.359375 -276.359375 C 116.359375 -264.921875 112.234375 -255.835938 103.984375 -249.109375 C 95.734375 -242.378906 84.59375 -239.015625 70.5625 -239.015625 Z M 113.75 -196.03125 L 113.75 -40.59375 C 113.75 -35.238281 114.289062 -31.4375 115.375 -29.1875 C 116.46875 -26.945312 118.242188 -25.394531 120.703125 -24.53125 L 127 -22.359375 C 132.9375 -19.898438 135.90625 -16.140625 135.90625 -11.078125 C 135.90625 -3.691406 131.128906 0 121.578125 0 L 29.3125 0 C 24.382812 0 20.765625 -0.972656 18.453125 -2.921875 C 16.140625 -4.878906 14.984375 -7.597656 14.984375 -11.078125 C 14.984375 -16.140625 17.875 -19.898438 23.65625 -22.359375 L 30.390625 -24.53125 C 32.847656 -25.539062 34.582031 -27.128906 35.59375 -29.296875 C 36.613281 -31.472656 37.125 -35.164062 37.125 -40.375 L 37.125 -153.265625 C 37.125 -157.460938 36.546875 -160.460938 35.390625 -162.265625 C 34.234375 -164.078125 32.347656 -165.273438 29.734375 -165.859375 L 21.703125 -166.9375 C 16.347656 -168.53125 13.671875 -171.789062 13.671875 -176.71875 C 13.671875 -179.75 14.503906 -182.132812 16.171875 -183.875 C 17.835938 -185.613281 20.914062 -187.351562 25.40625 -189.09375 L 69.46875 -205.8125 C 76.269531 -208.414062 81.660156 -210.257812 85.640625 -211.34375 C 89.617188 -212.425781 93.054688 -212.96875 95.953125 -212.96875 C 101.890625 -212.96875 106.335938 -211.410156 109.296875 -208.296875 C 112.265625 -205.191406 113.75 -201.101562 113.75 -196.03125 Z M 113.75 -196.03125" transform="translate(283.180264, 424.771024)"/></g></g></g><g fill="#000" fill-opacity="1"><g><g><path d="M 113.75 -196.03125 L 113.75 -174.546875 C 130.101562 -188.867188 144.539062 -198.925781 157.0625 -204.71875 C 169.582031 -210.507812 181.34375 -213.40625 192.34375 -213.40625 C 206.957031 -213.40625 219.4375 -209.640625 229.78125 -202.109375 C 240.132812 -194.585938 247.335938 -184.3125 251.390625 -171.28125 C 262.972656 -181.707031 273.539062 -189.992188 283.09375 -196.140625 C 292.644531 -202.296875 301.546875 -206.710938 309.796875 -209.390625 C 318.046875 -212.066406 326.003906 -213.40625 333.671875 -213.40625 C 346.410156 -213.40625 357.445312 -210.582031 366.78125 -204.9375 C 376.113281 -199.289062 383.382812 -191.398438 388.59375 -181.265625 C 393.800781 -171.140625 396.40625 -159.273438 396.40625 -145.671875 L 396.40625 -40.8125 C 396.40625 -35.457031 396.984375 -31.617188 398.140625 -29.296875 C 399.304688 -26.984375 401.046875 -25.394531 403.359375 -24.53125 L 409.65625 -22.359375 C 412.84375 -21.054688 415.085938 -19.5 416.390625 -17.6875 C 417.691406 -15.882812 418.34375 -13.679688 418.34375 -11.078125 C 418.34375 -7.597656 417.21875 -4.878906 414.96875 -2.921875 C 412.726562 -0.972656 409.078125 0 404.015625 0 L 314.140625 0 C 309.066406 0 305.375 -1.007812 303.0625 -3.03125 C 300.75 -5.0625 299.59375 -7.957031 299.59375 -11.71875 C 299.59375 -16.351562 301.90625 -19.828125 306.53125 -22.140625 L 312.828125 -24.53125 C 315.285156 -25.6875 317.054688 -27.347656 318.140625 -29.515625 C 319.234375 -31.691406 319.78125 -35.457031 319.78125 -40.8125 L 319.78125 -134.59375 C 319.78125 -145.59375 317.28125 -153.84375 312.28125 -159.34375 C 307.289062 -164.84375 300.3125 -167.59375 291.34375 -167.59375 C 285.695312 -167.59375 279.867188 -166.328125 273.859375 -163.796875 C 267.859375 -161.265625 261.890625 -157.46875 255.953125 -152.40625 L 254.875 -151.53125 C 255.007812 -150.519531 255.078125 -149.539062 255.078125 -148.59375 C 255.078125 -147.65625 255.078125 -146.679688 255.078125 -145.671875 L 255.078125 -40.8125 C 255.078125 -35.457031 255.65625 -31.691406 256.8125 -29.515625 C 257.976562 -27.347656 259.789062 -25.6875 262.25 -24.53125 L 268.109375 -22.140625 C 272.742188 -19.828125 275.0625 -16.351562 275.0625 -11.71875 C 275.0625 -7.957031 273.898438 -5.0625 271.578125 -3.03125 C 269.265625 -1.007812 265.578125 0 260.515625 0 L 172.8125 0 C 167.738281 0 164.046875 -1.007812 161.734375 -3.03125 C 159.421875 -5.0625 158.265625 -7.957031 158.265625 -11.71875 C 158.265625 -16.351562 160.578125 -19.828125 165.203125 -22.140625 L 171.5 -24.53125 C 173.957031 -25.6875 175.726562 -27.347656 176.8125 -29.515625 C 177.90625 -31.691406 178.453125 -35.457031 178.453125 -40.8125 L 178.453125 -134.59375 C 178.453125 -145.59375 175.988281 -153.84375 171.0625 -159.34375 C 166.144531 -164.84375 159.128906 -167.59375 150.015625 -167.59375 C 144.367188 -167.59375 138.539062 -166.328125 132.53125 -163.796875 C 126.53125 -161.265625 120.5625 -157.46875 114.625 -152.40625 L 113.75 -151.75 L 113.75 -40.59375 C 113.75 -35.238281 114.289062 -31.507812 115.375 -29.40625 C 116.46875 -27.3125 118.242188 -25.6875 120.703125 -24.53125 L 126.78125 -22.140625 C 131.414062 -19.828125 133.734375 -16.351562 133.734375 -11.71875 C 133.734375 -7.957031 132.570312 -5.0625 130.25 -3.03125 C 127.9375 -1.007812 124.25 0 119.1875 0 L 29.3125 0 C 24.382812 0 20.765625 -0.972656 18.453125 -2.921875 C 16.140625 -4.878906 14.984375 -7.597656 14.984375 -11.078125 C 14.984375 -16.140625 17.875 -19.898438 23.65625 -22.359375 L 30.390625 -24.53125 C 32.847656 -25.539062 34.582031 -27.128906 35.59375 -29.296875 C 36.613281 -31.472656 37.125 -35.164062 37.125 -40.375 L 37.125 -153.265625 C 37.125 -157.460938 36.546875 -160.460938 35.390625 -162.265625 C 34.234375 -164.078125 32.347656 -165.273438 29.734375 -165.859375 L 21.703125 -166.9375 C 16.347656 -168.53125 13.671875 -171.789062 13.671875 -176.71875 C 13.671875 -179.75 14.503906 -182.132812 16.171875 -183.875 C 17.835938 -185.613281 20.914062 -187.351562 25.40625 -189.09375 L 69.46875 -205.8125 C 75.976562 -208.269531 81.257812 -210.078125 85.3125 -211.234375 C 89.363281 -212.390625 93.203125 -212.96875 96.828125 -212.96875 C 102.328125 -212.96875 106.519531 -211.410156 109.40625 -208.296875 C 112.300781 -205.191406 113.75 -201.101562 113.75 -196.03125 Z M 113.75 -196.03125" transform="translate(428.849163, 424.771024)"/></g></g></g><g fill="#000" fill-opacity="1"><g><g><path d="M 224.90625 -130.46875 C 224.90625 -121.5 222.40625 -114.550781 217.40625 -109.625 C 212.414062 -104.707031 205.21875 -102.25 195.8125 -102.25 L 83.578125 -102.25 C 87.054688 -83.4375 94.691406 -69.429688 106.484375 -60.234375 C 118.273438 -51.046875 133 -46.453125 150.65625 -46.453125 C 161.800781 -46.453125 171.75 -48.257812 180.5 -51.875 C 189.257812 -55.5 196.828125 -61.289062 203.203125 -69.25 C 206.671875 -72.582031 209.34375 -74.828125 211.21875 -75.984375 C 213.101562 -77.140625 214.988281 -77.71875 216.875 -77.71875 C 219.476562 -77.71875 221.359375 -76.488281 222.515625 -74.03125 C 223.671875 -71.570312 224.25 -68.53125 224.25 -64.90625 C 224.113281 -55.351562 221.582031 -46.34375 216.65625 -37.875 C 211.738281 -29.414062 204.898438 -21.925781 196.140625 -15.40625 C 187.390625 -8.894531 177.039062 -3.757812 165.09375 0 C 153.15625 3.757812 139.953125 5.640625 125.484375 5.640625 C 109.273438 5.640625 94.332031 3.179688 80.65625 -1.734375 C 66.976562 -6.660156 55.070312 -13.71875 44.9375 -22.90625 C 34.800781 -32.09375 26.945312 -43.085938 21.375 -55.890625 C 15.8125 -68.703125 13.03125 -82.925781 13.03125 -98.5625 C 13.03125 -121.425781 17.585938 -141.46875 26.703125 -158.6875 C 35.816406 -175.914062 48.984375 -189.34375 66.203125 -198.96875 C 83.429688 -208.59375 104.128906 -213.40625 128.296875 -213.40625 C 149.140625 -213.40625 166.757812 -209.859375 181.15625 -202.765625 C 195.5625 -195.671875 206.453125 -185.898438 213.828125 -173.453125 C 221.210938 -161.003906 224.90625 -146.675781 224.90625 -130.46875 Z M 81.40625 -126.5625 C 81.40625 -125.84375 81.40625 -125.082031 81.40625 -124.28125 C 81.40625 -123.488281 81.40625 -122.726562 81.40625 -122 L 137.203125 -122 C 141.109375 -122 144 -122.832031 145.875 -124.5 C 147.757812 -126.164062 148.703125 -128.878906 148.703125 -132.640625 C 148.703125 -151.171875 145.914062 -164.847656 140.34375 -173.671875 C 134.78125 -182.503906 127.289062 -186.921875 117.875 -186.921875 C 107.3125 -186.921875 98.59375 -181.78125 91.71875 -171.5 C 84.84375 -161.226562 81.40625 -146.25 81.40625 -126.5625 Z M 81.40625 -126.5625" transform="translate(857.389264, 424.771024)"/></g></g></g></g></g></g><g clip-path="url(#30815ff5d6)"><g><g clip-path="url(#76543f2085)" transform="matrix(1, 0, 0, 1, 277, 159)"><g clip-path="url(#d3c9447e16)"><path fill="#ffed00" fill-opacity="1" fill-rule="nonzero" d="M 0.417969 0.730469 L 141.238281 0.730469 L 141.238281 154.75 L 0.417969 154.75 Z M 0.417969 0.730469"/></g></g></g></g><g clip-path="url(#3a6d6a45d9)"><g clip-path="url(#cc46bd8ab8)"><g clip-path="url(#2bf4cf0d8b)"><g><g clip-path="url(#453f4a5800)" transform="matrix(1, 0, 0, 1, 222, 63)"><g clip-path="url(#a6fdbdacd7)"><g clip-path="url(#7b8fbcd38e)"><g clip-path="url(#fbd139f66d)"><path fill="#ffde59" fill-opacity="1" fill-rule="nonzero" d="M 96.625 -41.007812 L 304.597656 110.644531 L 155.851562 314.632812 L -52.121094 162.980469 Z M 96.625 -41.007812"/></g></g></g></g></g></g></g></g><g clip-path="url(#ef8a1c6741)"><g clip-path="url(#c2e762d7af)"><g clip-path="url(#07e27112a7)"><g clip-path="url(#6a8ac0fa7b)"><path fill="none" stroke="#000" stroke-linecap="butt" stroke-linejoin="miter" stroke-miterlimit="4" stroke-opacity="1" stroke-width="4.337" d="M 128.435081 14.602138 L 94.165763 62.876984 L 148.995968 81.35108 L 142.142492 104.595208 L 86.715745 86.119869 L 86.715193 146.01661 L 62.875006 146.015543 L 62.875558 86.118802 L 7.449954 104.594411 L 0.000915958 81.351833 L 55.42652 62.876224 L 21.158482 14.601232 L 40.527422 -0.000751452 L 74.79546 48.27424 L 109.064778 -0.000605779 Z M 128.435081 14.602138" transform="matrix(1.39688, 1.018602, -1.018602, 1.39688, 318.629496, 21.993169)"/></g></g></g></g></g></g></svg>